<svg xmlns="http://www.w3.org/2000/svg" viewBox="0 0 64 64" fill="none">
  <defs>
    <linearGradient id="bg" x1="10" y1="8" x2="54" y2="56" gradientUnits="userSpaceOnUse">
      <stop stop-color="#284A6E"/>
      <stop offset="1" stop-color="#173A5D"/>
    </linearGradient>
    <linearGradient id="ring" x1="16" y1="14" x2="48" y2="50" gradientUnits="userSpaceOnUse">
      <stop stop-color="#E6F1FB"/>
      <stop offset="1" stop-color="#C9DCF0"/>
    </linearGradient>
  </defs>

  <rect x="6" y="6" width="52" height="52" rx="16" fill="url(#bg)"/>
  <circle cx="32" cy="32" r="17.5" fill="none" stroke="url(#ring)" stroke-width="5"/>
  <path
    d="M39.5 25.75C38.07 24.12 35.82 23 33 23C27.75 23 24 26.81 24 32.08C24 37.22 27.57 41 33.08 41C35.82 41 38.54 39.79 39.96 37.75V34.88H33.25V29.96H45V39.62C42.57 42.71 38.34 46 32.96 46C24.22 46 18.5 39.88 18.5 32.08C18.5 24.24 24.47 18 33 18C38.04 18 42.13 20.08 44.7 23.54L39.5 25.75Z"
    fill="white"
  />
</svg>
